<?xml version="1.0" encoding="UTF-8"?><svg xmlns="http://www.w3.org/2000/svg" viewBox="0 0 62 62"><defs><style>.i{fill:#fff;fill-rule:evenodd;}.j{fill:#151515;}</style></defs><g id="a"><g id="b"><g id="c"><rect class="j" width="62" height="62" rx="18.41" ry="18.41"/><g id="d"><g id="e" transform="translate(-240.000000, -48.000000)"><g id="f" transform="translate(240.000000, 48.000000)"><path id="g" class="i" d="M24.84,17.24c-1.81,0-3.47,.97-4.39,2.52l-5.08,8.82c-.43,.77-.66,1.63-.66,2.52v6.35c0,.26,.05,.51,.15,.77,.15,.33,.36,.79,.48,1.07l1.79,3.57c.54,1.07,1.66,1.76,2.86,1.89h1.4c1.38-.1,2.55-.99,3.01-2.42,.26-.79,.94-1.33,1.76-1.33h9.79c.74,0,1.38,.46,1.71,1.12,.56,1.12,1.79,1.99,2.47,2.37,.28,.18,.61,.26,.94,.26h0c1.91,0,3.65-1.07,4.51-2.78l1.12-2.24c.36-.71,.54-1.48,.54-2.27v-6.38c0-.89-.23-1.76-.66-2.52l-5.08-8.82c-.89-1.58-2.58-2.52-4.39-2.52h-12.32l.03,.03Zm6.17,13.01c-2.55,0-4.9-.54-7.27-1.43-.79-.38-1.76-.08-2.14,.71-.38,.79-.08,1.76,.71,2.14,.79,.38,4.79,1.76,8.7,1.76,2.96,0,6.02-.43,8.7-1.76,.79-.38,1.1-1.35,.71-2.14-.38-.79-1.35-1.1-2.14-.71-2.17,1.1-4.87,1.43-7.27,1.43Z"/></g></g></g></g></g></g><g id="h"/></svg>