<?xml version="1.0" encoding="UTF-8"?><svg xmlns="http://www.w3.org/2000/svg" viewBox="0 0 151.75 24.31"><defs><style>.h{fill:#fff;fill-rule:evenodd;}.i{fill:#151515;}</style></defs><g id="a"/><g id="b"><g id="c"><rect class="i" x="0" y="0" width="24.31" height="24.31" rx="7.22" ry="7.22"/><g id="d"><g id="e" transform="translate(-240.000000, -48.000000)"><g id="f" transform="translate(240.000000, 48.000000)"><path id="g" class="h" d="M9.74,6.76c-.71,0-1.36,.38-1.72,.99l-1.99,3.46c-.17,.3-.26,.64-.26,.99v2.49c0,.1,.02,.2,.06,.3,.06,.13,.14,.31,.19,.42l.7,1.4c.21,.42,.65,.69,1.12,.74h.55c.54-.04,1-.39,1.18-.95,.1-.31,.37-.52,.69-.52,.98,0,2.89,0,3.84,0,.29,0,.54,.18,.67,.44,.22,.44,.7,.78,.97,.93,.11,.07,.24,.1,.37,.1h0c.75,0,1.43-.42,1.77-1.09l.44-.88c.14-.28,.21-.58,.21-.89v-2.5c0-.35-.09-.69-.26-.99l-1.99-3.46c-.35-.62-1.01-.99-1.72-.99h-4.83Zm2.42,5.1c-1,0-1.92-.21-2.85-.56-.31-.15-.69-.03-.84,.28-.15,.31-.03,.69,.28,.84,.31,.15,1.88,.69,3.41,.69,1.16,0,2.36-.17,3.41-.69,.31-.15,.43-.53,.28-.84-.15-.31-.53-.43-.84-.28-.85,.43-1.91,.56-2.85,.56Z"/></g></g></g><g><path class="i" d="M29.54,12.15c0-3.09,2.64-5.68,5.78-5.68,1.62,0,3.09,.69,4.15,1.78l-1.42,1.33c-.67-.78-1.66-1.28-2.72-1.28-2.03,0-3.75,1.76-3.75,3.86s1.71,3.87,3.75,3.87c1.07,0,2.05-.5,2.74-1.28l1.41,1.31c-1.06,1.1-2.53,1.79-4.15,1.79-3.14,0-5.78-2.61-5.78-5.7Z"/><path class="i" d="M48.54,15.68h-5.31l-.83,1.98h-2.22l4.59-11h2.23l4.59,11h-2.21l-.83-1.98Zm-.72-1.73l-1.94-4.63-1.94,4.63h3.87Z"/><path class="i" d="M59.75,17.66l-2.59-3.7h-2.13v3.7h-2V6.66h4.79c2.35,0,4.11,1.5,4.11,3.65,0,1.67-1.07,2.95-2.66,3.44l2.75,3.91h-2.27Zm-4.72-5.54h2.56c1.36,0,2.31-.69,2.31-1.81s-.94-1.81-2.31-1.81h-2.56v3.62Z"/><path class="i" d="M63.09,16.06l1.15-1.42c1.01,.91,2.18,1.49,3.62,1.49,1.36,0,2.06-.67,2.06-1.46,0-.91-.78-1.22-2.54-1.63-2.27-.53-3.86-1.18-3.86-3.25,0-1.92,1.63-3.33,3.95-3.33,1.74,0,3.06,.59,4.16,1.54l-1.09,1.47c-.96-.83-2.06-1.3-3.15-1.3s-1.86,.67-1.86,1.44c0,.9,.82,1.22,2.56,1.62,2.29,.51,3.83,1.25,3.83,3.25s-1.5,3.36-4.13,3.36c-1.89,0-3.49-.64-4.71-1.78Z"/><path class="i" d="M73.89,6.66h5.39c1.9,0,3.25,1.15,3.25,2.75,0,1.12-.58,1.9-1.55,2.43,1.26,.61,2.02,1.62,2.02,2.82,0,1.76-1.46,2.99-3.51,2.99h-5.6V6.66Zm4.91,4.5c.98,0,1.68-.58,1.68-1.38s-.7-1.39-1.68-1.39h-2.93v2.77h2.93Zm.29,4.77c1.09,0,1.86-.66,1.86-1.57s-.77-1.57-1.86-1.57h-3.22v3.14h3.22Z"/><path class="i" d="M84.89,12.97V6.66h2v6.24c0,1.82,1.18,3.14,2.85,3.14s2.87-1.31,2.87-3.14V6.66h1.98v6.31c0,2.87-2,4.88-4.85,4.88s-4.85-2.02-4.85-4.88Z"/><path class="i" d="M100.23,13.53l-4.35-6.87h2.35l3.03,4.98,3.07-4.98h2.27l-4.34,6.87v4.13h-2.03v-4.13Z"/><path class="i" d="M108.01,6.66h5.39c1.9,0,3.25,1.15,3.25,2.75,0,1.12-.58,1.9-1.55,2.43,1.26,.61,2.02,1.62,2.02,2.82,0,1.76-1.46,2.99-3.51,2.99h-5.6V6.66Zm4.91,4.5c.98,0,1.68-.58,1.68-1.38s-.7-1.39-1.68-1.39h-2.93v2.77h2.93Zm.29,4.77c1.09,0,1.86-.66,1.86-1.57s-.77-1.57-1.86-1.57h-3.22v3.14h3.22Z"/><path class="i" d="M126.5,15.68h-5.31l-.83,1.98h-2.22l4.59-11h2.23l4.59,11h-2.21l-.83-1.98Zm-.72-1.73l-1.94-4.63-1.94,4.63h3.87Z"/><path class="i" d="M130.58,12.15c0-3.09,2.64-5.68,5.78-5.68,1.62,0,3.09,.69,4.15,1.78l-1.42,1.33c-.67-.78-1.66-1.28-2.72-1.28-2.03,0-3.75,1.76-3.75,3.86s1.71,3.87,3.75,3.87c1.07,0,2.05-.5,2.74-1.28l1.41,1.31c-1.06,1.1-2.53,1.79-4.15,1.79-3.14,0-5.78-2.61-5.78-5.7Z"/><path class="i" d="M142.16,6.66h2v5.38l4.82-5.38h2.45l-4.4,4.85,4.72,6.15h-2.47l-3.63-4.74-1.49,1.6v3.14h-2V6.66Z"/></g></g></g></svg>