<svg xmlns="http://www.w3.org/2000/svg" viewBox="0 0 305.14 193.07"><title>Honda Motor logo</title><path d="M394.6,577.47l4.63.54c2.08.24,2.3,2,2.3,3.08v5.48H380.21V581.1c0-1.11.22-2.84,2.3-3.08l4.63-.54v-4.69h-27.7v4.69l4.63.54c2.07.24,2.3,2,2.3,3.08V599c0,1.11-.23,2.84-2.3,3.08l-4.63.55v4.68h27.7v-4.68l-4.63-.55c-2.08-.23-2.3-2-2.3-3.08v-5.48h21.32V599c0,1.11-.23,2.84-2.3,3.08l-4.63.55v4.68h27.71v-4.68l-4.63-.55c-2.07-.23-2.3-2-2.3-3.08V581.1c0-1.11.23-2.84,2.3-3.08l4.63-.54v-4.69H394.6Z" transform="translate(-359.43 -415.46)"/><path d="M579.35,572.79H545.15v4.69l4.09.43c1.46.18,2.41.8,2.41,2.82V599c0,1.11-.23,2.84-2.3,3.08l-4.63.55v4.68h34.63c12.39,0,22.58-5,22.58-17.28s-10.19-17.28-22.58-17.28m-2.52,27.93H565.23V579.41h11.61c6.84,0,9.17,3.25,9.17,10.66s-2.33,10.66-9.17,10.66" transform="translate(-359.43 -415.46)"/><path d="M660.17,602.17c-2.19-.25-2.88-1.67-3.56-2.71l-15.95-24.37c-1.15-1.75-2-2.3-3.68-2.3H610.72v4.69l6.26.71a1.82,1.82,0,0,1,1.1,2.91L606.3,600.26a3.26,3.26,0,0,1-2.44,1.86l-4.69.54v4.68h22.14v-4.68l-3.82-.39c-1.63-.17-2.5-1.31-1.69-2.64l1.77-2.88h21.25l1.57,2.39c1.37,2.1-.36,3-1.86,3.12l-3.92.4v4.68h29.95v-4.68Zm-38.83-11.53L627.88,580l7,10.64Z" transform="translate(-359.43 -415.46)"/><path d="M520.41,577.47,525,578c2.07.24,2.3,2,2.3,3.08v17.29L509,574.25c-.82-1.11-1.54-1.47-3.5-1.47H481.78v4.69l4.63.54c2.07.24,2.3,2,2.3,3.08V599c0,1.11-.23,2.84-2.3,3.08l-4.63.55v4.68h22.13v-4.68l-4.63-.55c-2.07-.23-2.3-2-2.3-3.08v-17.3l18.29,24.13c.83,1.11,1.55,1.47,3.51,1.47h16.83V581.1c0-1.11.23-2.84,2.3-3.08l4.63-.54v-4.69H520.41Z" transform="translate(-359.43 -415.46)"/><path d="M452,571.6c-22.5,0-28.31,9.84-28.31,18.47s5.81,18.47,28.31,18.47,28.31-9.85,28.31-18.47S474.48,571.6,452,571.6m0,30.35c-8.72,0-12.36-3.65-12.36-11.88s3.64-11.88,12.36-11.88,12.36,3.66,12.36,11.88-3.64,11.88-12.36,11.88" transform="translate(-359.43 -415.46)"/><path d="M550.36,426.87c-3.82,17-5.32,24.81-8.42,37.11-3,11.81-5.27,22.78-9.25,28.09s-9.43,6.57-13.1,7a84.79,84.79,0,0,1-14.81,0c-3.67-.41-9.06-1.59-13.1-7s-6.28-16.27-9.26-28.09c-3.09-12.3-4.6-20.12-8.41-37.11,0,0-3.8.15-5.48.26-2.28.17-4.06.36-6,.62,0,0,2.19,35,3.18,49.77,1,15.58,2.87,41.83,4.59,61.65,0,0,3.19.51,8.49.81,5.57.32,8.06.36,8.06.36,2.29-8.73,5.13-20.85,8.35-26,2.62-4.2,6.65-4.65,8.94-5a52.5,52.5,0,0,1,8-.52h0a52.54,52.54,0,0,1,8,.52c2.29.31,6.31.76,8.94,5,3.22,5.17,6.06,17.28,8.35,26,0,0,2.48,0,8.05-.36,5.31-.3,8.5-.81,8.5-.81,1.72-19.82,3.55-46.07,4.59-61.65,1-14.81,3.18-49.77,3.18-49.77-1.94-.25-3.72-.45-6-.62-1.68-.12-5.48-.26-5.48-.26" transform="translate(-359.43 -415.46)"/><path d="M594.41,447.5c-2.26-22.2-17.07-26.89-30.08-29.07a254.44,254.44,0,0,0-25.66-2.34c-6.52-.41-21.91-.62-26.47-.63s-20,.22-26.48.63A254.31,254.31,0,0,0,460,418.43c-13,2.18-27.82,6.87-30.08,29.07a208.75,208.75,0,0,0-.68,22.44,288.42,288.42,0,0,0,2.09,30.15c.48,4.51,2.36,18.09,4.78,25.11,3.33,9.64,6.31,12.45,9.84,15.32,6.44,5.25,17,6.86,19.3,7.27,12,2.16,36.2,2.54,46.89,2.53s34.92-.37,46.89-2.53c2.26-.41,12.86-2,19.3-7.27,3.52-2.87,6.51-5.68,9.84-15.32,2.42-7,4.31-20.59,4.78-25.11a287.12,287.12,0,0,0,2.09-30.15,208.88,208.88,0,0,0-.68-22.44m-8.14,37.3c-1.31,17.73-2.89,28.37-5.15,36-2,6.72-4.43,11.23-8,14.47-6,5.41-14.22,6.58-19.05,7.29-10.44,1.55-28,2.09-41.85,2.09s-31.41-.54-41.86-2.09c-4.83-.72-13.07-1.88-19.05-7.29-3.58-3.24-6-7.76-8-14.47-2.26-7.66-3.84-18.3-5.15-36-.8-10.69-.63-28,.56-37.32,1.77-13.88,8.66-20.87,23.43-23.5a213,213,0,0,1,25-2.54c7-.48,18.66-.71,25.14-.66s18.08.18,25.13.66a212.54,212.54,0,0,1,25,2.54c14.77,2.63,21.66,9.62,23.43,23.5,1.19,9.31,1.36,26.63.56,37.32" transform="translate(-359.43 -415.46)"/></svg>