<svg xmlns="http://www.w3.org/2000/svg" viewBox="0 0 218.25 104.03"><title>Infiniti Motor logo</title><path d="M441.7,539.33v20.29l-6.89-19.56c-.15-.51-.51-.73-1.25-.73H427.2V564h4.4V543.94l6.81,19.27a1,1,0,0,0,1.1.73h6.59V539.25h-4.4Zm22.71,0V564h5.13V553.47h9.16v-4.54h-9.16V543.8h9.3v-4.54H464.42Zm117.44,0v4.76h5.64V564h5.13V544h5.64v-4.76H581.78ZM496.65,564h5.49V539.33h-5.49Zm62.27,0h5.49V539.33h-5.49Zm56.78,0h5.42V539.33H615.7Zm-212.83,0h5.49V539.33h-5.49ZM540.1,539.33h-4.4v20.29l-6.89-19.56c-.15-.51-.51-.73-1.17-.73h-6.45V564h4.4V543.94l6.81,19.27a1,1,0,0,0,1.1.73h6.59V539.33Zm-5.71-40.51-22.35-30-22.35,30c-7.55-.73-20.51-5.64-20.51-14.36,0-11,19-21.25,42.93-21.25,25.13,0,42.93,10.26,42.93,21.25,0,8.79-13,13.7-20.51,14.29M512,460c-30.92,0-52.46,12.09-52.46,27.69,0,7.33,4.69,15.53,14.65,20.51,9.3,4.62,22.35,6.23,24.18,6.45L512,474.86l13.63,39.78a84.25,84.25,0,0,0,24.18-6.45c10-5,14.65-13.19,14.65-20.51C564.42,472,543,460,512,460" transform="translate(-402.87 -459.98)" style="fill:#231f20"/></svg>