<svg id="Layer_1" data-name="Layer 1" xmlns="http://www.w3.org/2000/svg" width="250" height="98.75" viewBox="0 0 250 98.75"><title>Jeep logo - Brandlogos.net</title><path d="M302.05,334.62h20.33v53.32c0,9.18-3.93,28.41-32.13,28.41S259,398.44,259,388.38v-9.83h19.67v9.62c0,5.9,3.94,11.36,11.37,11.36s12-4.15,12-11.14Z" transform="translate(-259 -334.62)"/><path d="M365.21,378.76c0-5.46-3.05-10.71-10.05-10.71-6.78,0-9.18,4.81-9.18,10.71Zm-11.36-22.95c16,0,29.94,6.12,29.94,34.31H346c0,9,3.72,12.67,10.27,12.67a9.38,9.38,0,0,0,8.74-5.24h18.58c0,8.09-11.14,19-28,18.79-19.23,0-28.63-14.2-28.63-28.85s8.3-31.69,26.88-31.69" transform="translate(-259 -334.62)"/><path d="M426,378.76c0-5.46-3.05-10.71-10.05-10.71-6.77,0-9.18,4.81-9.18,10.71ZM414.6,355.82c16,0,29.94,6.12,29.94,34.31H406.73c0,9,3.72,12.67,10.27,12.67a9.38,9.38,0,0,0,8.74-5.24h18.58c0,8.09-11.14,19-28,18.79-19.23,0-28.63-14.2-28.63-28.85s8.3-31.69,26.88-31.69" transform="translate(-259 -334.62)"/><path d="M467.92,386.83c-.22,11.14,2.18,17,11.36,17s10.49-10.05,10.49-17.7S488,371.09,478.4,371.09c-5.9,0-10.27,4.59-10.49,15.73m-18.58,46.55V358h18.79v8.59a16.13,16.13,0,0,1,2.62-4.22c1.27-1.53,4.81-5.9,14.2-5.9s24,6.56,24,29.72c0,17.92-8.74,31-23.82,31-8.3,0-12-2.89-14.2-4.59a11.52,11.52,0,0,1-2.62-2.63v23.39Z" transform="translate(-259 -334.62)"/></svg>