<svg xmlns="http://www.w3.org/2000/svg" width="164.23" height="164.23" viewBox="0 0 164.23 164.23"><title>Volvo Iron Mark vector - Brandlogos.net</title><path d="M504.08,518.18H524v-6.64H521.8a4.36,4.36,0,0,1-4.7,4.42H514V506h3.34v-2.2h-13.3V506h3.34v9.92h-3.35Z" transform="translate(-429.88 -429.88)" style="fill:#010101"/><path d="M533.56,518.19h7.75L547.89,506h3.29v-2.21h-9.91V506h2.86l-4.79,8.86L534.49,506H538v-2.21H523.58V506h3.29Z" transform="translate(-429.88 -429.88)" style="fill:#010101"/><path d="M464.42,503.83H450V506h3.29L460,518.19h7.75L474.34,506h3.3v-2.21h-9.92V506h2.87l-4.79,8.86L460.94,506h3.49Z" transform="translate(-429.88 -429.88)" style="fill:#010101"/><path d="M479.56,511.06c0,4.23,3.41,7.59,10.24,7.59s10.2-3.36,10.2-7.59-3.57-7.5-10.24-7.5S479.56,506.85,479.56,511.06Zm13.76,0c0,2.61-1.12,5.33-3.63,5.28s-3.5-2.74-3.46-5.41,1.38-5.18,3.65-5.14S493.37,508.29,493.33,511.06Z" transform="translate(-429.88 -429.88)" style="fill:#010101"/><path d="M553.1,511.06c0,4.23,3.4,7.59,10.24,7.59s10.21-3.36,10.21-7.59-3.58-7.5-10.25-7.5S553.1,506.85,553.1,511.06Zm10.32-5.23c2.28,0,3.48,2.5,3.43,5.26,0,2.61-1.12,5.33-3.62,5.28s-3.51-2.73-3.46-5.41,1.37-5.22,3.65-5.18Z" transform="translate(-429.88 -429.88)" style="fill:#010101"/><path d="M579.58,465.36l-8.33,8.33a70.43,70.43,0,1,1-20.81-20.85l8.33-8.33a82.12,82.12,0,1,0,20.81,20.85Z" transform="translate(-429.88 -429.88)" style="fill:#010101"/><path d="M553.34,433.16v2.29a87.52,87.52,0,0,1,14,9.45l-11.72,11.72a69.8,69.8,0,0,1,11.86,11.85l11.72-11.72a91.2,91.2,0,0,1,9.48,13.95h2.25V433.16Z" transform="translate(-429.88 -429.88)" style="fill:#010101"/></svg>